<svg width="12" height="8" viewBox="0 0 12 8" fill="none" xmlns="http://www.w3.org/2000/svg">
<path d="M11.1782 4.44098C11.4396 4.44098 11.6514 4.22912 11.6514 3.96777C11.6514 3.70643 11.4396 3.49457 11.1782 3.49457L11.1782 4.44098ZM0.422951 3.63316C0.238152 3.81796 0.238152 4.11758 0.422951 4.30238L3.43442 7.31385C3.61922 7.49865 3.91884 7.49865 4.10364 7.31385C4.28844 7.12905 4.28844 6.82944 4.10364 6.64464L1.42677 3.96777L4.10364 1.29091C4.28844 1.10611 4.28844 0.806491 4.10364 0.621692C3.91884 0.436893 3.61922 0.436893 3.43442 0.621692L0.422951 3.63316ZM11.1782 3.49457L0.757559 3.49457L0.757559 4.44098L11.1782 4.44098L11.1782 3.49457Z" fill="#2E323E"/>
</svg>
