<svg width="61" height="74" viewBox="0 0 61 74" fill="none" xmlns="http://www.w3.org/2000/svg">
<rect x="61" y="73.9983" width="36" height="47" rx="10" transform="rotate(-180 61 73.9983)" fill="url(#paint0_linear_59_234)"/>
<g filter="url(#filter0_b_59_234)">
<rect x="50.6855" y="65.5552" width="50.6856" height="65.5552" rx="10" transform="rotate(-180 50.6855 65.5552)" fill="#5E44FF" fill-opacity="0.2"/>
<rect x="50.1855" y="65.0552" width="49.6856" height="64.5552" rx="9.5" transform="rotate(-180 50.1855 65.0552)" stroke="white"/>
</g>
<rect x="8.5" y="51.5" width="34" height="2" rx="1" fill="url(#paint1_linear_59_234)" fill-opacity="0.7" stroke="url(#paint2_linear_59_234)"/>
<rect x="8.5" y="45.5" width="34" height="2" rx="1" fill="url(#paint3_linear_59_234)" fill-opacity="0.7" stroke="url(#paint4_linear_59_234)"/>
<rect x="8.5" y="39.5" width="34" height="2" rx="1" fill="url(#paint5_linear_59_234)" fill-opacity="0.7" stroke="url(#paint6_linear_59_234)"/>
<path d="M20.0295 28.5524L20.0295 28.5524C19.1479 27.382 18.4923 25.9699 18.0882 24.349C17.5972 22.3798 17.4513 20.4528 17.5136 16.416L17.5366 14.9265L17.6857 14.9196C19.7164 14.8258 21.2574 14.4464 22.821 13.6378C23.8007 13.1311 24.7664 12.4318 25.498 11.6952C26.2527 12.4452 27.2029 13.133 28.179 13.6378C29.7426 14.4464 31.2836 14.8258 33.3143 14.9196L33.4634 14.9265L33.4864 16.416C33.5487 20.4528 33.4028 22.3798 32.9118 24.349C32.5077 25.9699 31.8521 27.382 30.9705 28.5524L30.9705 28.5524C30.6089 29.0326 29.7994 29.885 29.3526 30.257C28.3735 31.0721 27.192 31.7682 25.8239 32.3285L25.5011 32.4607L25.2156 32.3469L25.0381 32.7921L25.2156 32.3469C23.9182 31.8297 22.6239 31.07 21.6474 30.257C21.2006 29.885 20.3911 29.0326 20.0295 28.5524Z" fill="url(#paint7_linear_59_234)" fill-opacity="0.7" stroke="url(#paint8_linear_59_234)"/>
<defs>
<filter id="filter0_b_59_234" x="-22" y="-22" width="94.6855" height="109.555" filterUnits="userSpaceOnUse" color-interpolation-filters="sRGB">
<feFlood flood-opacity="0" result="BackgroundImageFix"/>
<feGaussianBlur in="BackgroundImageFix" stdDeviation="11"/>
<feComposite in2="SourceAlpha" operator="in" result="effect1_backgroundBlur_59_234"/>
<feBlend mode="normal" in="SourceGraphic" in2="effect1_backgroundBlur_59_234" result="shape"/>
</filter>
<linearGradient id="paint0_linear_59_234" x1="75.9155" y1="120.855" x2="75.6956" y2="72.5082" gradientUnits="userSpaceOnUse">
<stop stop-color="#6764FF"/>
<stop offset="1" stop-color="#A394FF"/>
</linearGradient>
<linearGradient id="paint1_linear_59_234" x1="28.241" y1="52.5319" x2="31.4357" y2="40.699" gradientUnits="userSpaceOnUse">
<stop stop-color="white"/>
<stop offset="1" stop-color="white" stop-opacity="0"/>
</linearGradient>
<linearGradient id="paint2_linear_59_234" x1="-57.3614" y1="60.3511" x2="-50.0967" y2="29.4437" gradientUnits="userSpaceOnUse">
<stop stop-color="white"/>
<stop offset="1" stop-color="white" stop-opacity="0"/>
</linearGradient>
<linearGradient id="paint3_linear_59_234" x1="28.241" y1="46.5319" x2="31.4357" y2="34.699" gradientUnits="userSpaceOnUse">
<stop stop-color="white"/>
<stop offset="1" stop-color="white" stop-opacity="0"/>
</linearGradient>
<linearGradient id="paint4_linear_59_234" x1="-57.3614" y1="54.3511" x2="-50.0967" y2="23.4437" gradientUnits="userSpaceOnUse">
<stop stop-color="white"/>
<stop offset="1" stop-color="white" stop-opacity="0"/>
</linearGradient>
<linearGradient id="paint5_linear_59_234" x1="28.241" y1="40.5319" x2="31.4357" y2="28.699" gradientUnits="userSpaceOnUse">
<stop stop-color="white"/>
<stop offset="1" stop-color="white" stop-opacity="0"/>
</linearGradient>
<linearGradient id="paint6_linear_59_234" x1="-57.3614" y1="48.3511" x2="-50.0967" y2="17.4437" gradientUnits="userSpaceOnUse">
<stop stop-color="white"/>
<stop offset="1" stop-color="white" stop-opacity="0"/>
</linearGradient>
<linearGradient id="paint7_linear_59_234" x1="26.8313" y1="22.234" x2="48.3741" y2="16.9492" gradientUnits="userSpaceOnUse">
<stop stop-color="white"/>
<stop offset="1" stop-color="white" stop-opacity="0"/>
</linearGradient>
<linearGradient id="paint8_linear_59_234" x1="-14.747" y1="79.5745" x2="47.6921" y2="61.9799" gradientUnits="userSpaceOnUse">
<stop stop-color="white"/>
<stop offset="1" stop-color="white" stop-opacity="0"/>
</linearGradient>
</defs>
</svg>
