<svg width="50" height="50" viewBox="0 0 50 50" fill="none" xmlns="http://www.w3.org/2000/svg">
<g id="Group 7033">
<rect id="Rectangle 969" width="50" height="50" rx="25" fill="#DFFF57"/>
<path id="Vector 2536 (Stroke)" fill-rule="evenodd" clip-rule="evenodd" d="M39.8473 16.8736C40.3616 18.3099 39.5344 19.8634 37.9997 20.3434C36.4262 20.8355 34.2317 21.9677 32.7072 23.7977C31.2759 25.5156 30.3022 27.9889 31.2185 31.6312C31.5894 33.1056 30.6129 34.5811 29.0373 34.9269C27.4618 35.2727 25.8838 34.3579 25.5129 32.8835C24.1807 27.588 25.5866 23.4206 28.0829 20.4241C30.486 17.5395 33.7671 15.8834 36.1372 15.1421C37.6719 14.6621 39.333 15.4373 39.8473 16.8736Z" fill="#2E323E" stroke="#DFFF57" stroke-linecap="round"/>
<path id="Vector 2536 (Stroke)_2" fill-rule="evenodd" clip-rule="evenodd" d="M36.2855 30.8818C35.2432 32.0139 33.4423 32.1191 32.263 31.1168C31.054 30.0892 28.9666 28.8783 26.5774 28.5572C24.3343 28.2558 21.6343 28.701 18.8021 31.258C17.6558 32.293 15.8523 32.2386 14.774 31.1364C13.6957 30.0342 13.7508 28.3016 14.8972 27.2666C19.0147 23.5491 23.45 22.6089 27.3623 23.1346C31.1285 23.6407 34.2165 25.4695 36.0375 27.0173C37.2168 28.0195 37.3278 29.7498 36.2855 30.8818Z" fill="#2E323E" stroke="#DFFF57" stroke-linecap="round"/>
<path id="Vector 2536 (Stroke)_3" fill-rule="evenodd" clip-rule="evenodd" d="M21.2577 34.9443C19.6938 34.6406 18.685 33.1786 19.0045 31.6789C19.332 30.1413 19.382 27.7718 18.4651 25.599C17.6042 23.5591 15.8288 21.5127 12.0544 20.4246C10.5265 19.9842 9.66249 18.4392 10.1245 16.9738C10.5864 15.5084 12.1995 14.6775 13.7273 15.118C19.2148 16.7 22.3224 19.9556 23.8238 23.5136C25.2692 26.9387 25.1609 30.4629 24.6677 32.7788C24.3482 34.2785 22.8216 35.2481 21.2577 34.9443Z" fill="#2E323E" stroke="#DFFF57" stroke-linecap="round"/>
</g>
</svg>
