<svg width="125" height="123" viewBox="0 0 125 123" fill="none" xmlns="http://www.w3.org/2000/svg">
<g id="Group 7050">
<g id="Ellipse 960" filter="url(#filter0_f_59_3077)">
<ellipse cx="62.5" cy="61.5" rx="28.5" ry="27.5" fill="#706BFF" fill-opacity="0.5"/>
</g>
<g id="Group 7038">
<g id="Group 7037">
<g id="Group 7035">
<rect id="Rectangle 1022" x="91" y="95.9983" width="36" height="47" rx="10" transform="rotate(-180 91 95.9983)" fill="url(#paint0_linear_59_3077)"/>
<g id="Rectangle 1023" filter="url(#filter1_b_59_3077)">
<rect x="80.6855" y="87.5552" width="50.6856" height="65.5552" rx="10" transform="rotate(-180 80.6855 87.5552)" fill="#5E44FF" fill-opacity="0.2"/>
<rect x="80.1855" y="87.0552" width="49.6856" height="64.5552" rx="9.5" transform="rotate(-180 80.1855 87.0552)" stroke="white"/>
</g>
</g>
<g id="Group 7036">
<rect id="Rectangle 1024" x="38.5" y="73.5" width="34" height="2" rx="1" fill="url(#paint1_linear_59_3077)" fill-opacity="0.7" stroke="url(#paint2_linear_59_3077)"/>
<rect id="Rectangle 1025" x="38.5" y="67.5" width="34" height="2" rx="1" fill="url(#paint3_linear_59_3077)" fill-opacity="0.7" stroke="url(#paint4_linear_59_3077)"/>
<rect id="Rectangle 1026" x="38.5" y="61.5" width="34" height="2" rx="1" fill="url(#paint5_linear_59_3077)" fill-opacity="0.7" stroke="url(#paint6_linear_59_3077)"/>
</g>
</g>
<path id="Vector" d="M50.0295 50.5524L50.0295 50.5524C49.1479 49.382 48.4923 47.9699 48.0882 46.349C47.5972 44.3798 47.4513 42.4528 47.5136 38.416L47.5366 36.9265L47.6857 36.9196C49.7164 36.8258 51.2574 36.4464 52.821 35.6378C53.8007 35.1311 54.7664 34.4318 55.498 33.6952C56.2527 34.4452 57.2029 35.133 58.179 35.6378C59.7426 36.4464 61.2836 36.8258 63.3143 36.9196L63.4634 36.9265L63.4864 38.416C63.5487 42.4528 63.4028 44.3798 62.9118 46.349C62.5077 47.9699 61.8521 49.382 60.9705 50.5524L60.9705 50.5524C60.6089 51.0326 59.7994 51.885 59.3526 52.257C58.3735 53.0721 57.192 53.7682 55.8239 54.3285L55.5011 54.4607L55.2156 54.3469L55.0381 54.7921L55.2156 54.3469C53.9182 53.8297 52.6239 53.07 51.6474 52.257C51.2006 51.885 50.3911 51.0326 50.0295 50.5524Z" fill="url(#paint7_linear_59_3077)" fill-opacity="0.7" stroke="url(#paint8_linear_59_3077)"/>
</g>
</g>
<defs>
<filter id="filter0_f_59_3077" x="0" y="0" width="125" height="123" filterUnits="userSpaceOnUse" color-interpolation-filters="sRGB">
<feFlood flood-opacity="0" result="BackgroundImageFix"/>
<feBlend mode="normal" in="SourceGraphic" in2="BackgroundImageFix" result="shape"/>
<feGaussianBlur stdDeviation="17" result="effect1_foregroundBlur_59_3077"/>
</filter>
<filter id="filter1_b_59_3077" x="8" y="0" width="94.6855" height="109.555" filterUnits="userSpaceOnUse" color-interpolation-filters="sRGB">
<feFlood flood-opacity="0" result="BackgroundImageFix"/>
<feGaussianBlur in="BackgroundImageFix" stdDeviation="11"/>
<feComposite in2="SourceAlpha" operator="in" result="effect1_backgroundBlur_59_3077"/>
<feBlend mode="normal" in="SourceGraphic" in2="effect1_backgroundBlur_59_3077" result="shape"/>
</filter>
<linearGradient id="paint0_linear_59_3077" x1="105.915" y1="142.855" x2="105.696" y2="94.5082" gradientUnits="userSpaceOnUse">
<stop stop-color="#6764FF"/>
<stop offset="1" stop-color="#A394FF"/>
</linearGradient>
<linearGradient id="paint1_linear_59_3077" x1="58.241" y1="74.5319" x2="61.4357" y2="62.699" gradientUnits="userSpaceOnUse">
<stop stop-color="white"/>
<stop offset="1" stop-color="white" stop-opacity="0"/>
</linearGradient>
<linearGradient id="paint2_linear_59_3077" x1="-27.3614" y1="82.3511" x2="-20.0967" y2="51.4437" gradientUnits="userSpaceOnUse">
<stop stop-color="white"/>
<stop offset="1" stop-color="white" stop-opacity="0"/>
</linearGradient>
<linearGradient id="paint3_linear_59_3077" x1="58.241" y1="68.5319" x2="61.4357" y2="56.699" gradientUnits="userSpaceOnUse">
<stop stop-color="white"/>
<stop offset="1" stop-color="white" stop-opacity="0"/>
</linearGradient>
<linearGradient id="paint4_linear_59_3077" x1="-27.3614" y1="76.3511" x2="-20.0967" y2="45.4437" gradientUnits="userSpaceOnUse">
<stop stop-color="white"/>
<stop offset="1" stop-color="white" stop-opacity="0"/>
</linearGradient>
<linearGradient id="paint5_linear_59_3077" x1="58.241" y1="62.5319" x2="61.4357" y2="50.699" gradientUnits="userSpaceOnUse">
<stop stop-color="white"/>
<stop offset="1" stop-color="white" stop-opacity="0"/>
</linearGradient>
<linearGradient id="paint6_linear_59_3077" x1="-27.3614" y1="70.3511" x2="-20.0967" y2="39.4437" gradientUnits="userSpaceOnUse">
<stop stop-color="white"/>
<stop offset="1" stop-color="white" stop-opacity="0"/>
</linearGradient>
<linearGradient id="paint7_linear_59_3077" x1="56.8313" y1="44.234" x2="78.3741" y2="38.9492" gradientUnits="userSpaceOnUse">
<stop stop-color="white"/>
<stop offset="1" stop-color="white" stop-opacity="0"/>
</linearGradient>
<linearGradient id="paint8_linear_59_3077" x1="15.253" y1="101.574" x2="77.6921" y2="83.9799" gradientUnits="userSpaceOnUse">
<stop stop-color="white"/>
<stop offset="1" stop-color="white" stop-opacity="0"/>
</linearGradient>
</defs>
</svg>
