<svg width="125" height="123" viewBox="0 0 125 123" fill="none" xmlns="http://www.w3.org/2000/svg">
<g id="Group 7047">
<g id="Ellipse 961" filter="url(#filter0_f_59_3095)">
<ellipse cx="62.5" cy="61.5" rx="28.5" ry="27.5" fill="#706BFF" fill-opacity="0.5"/>
</g>
<g id="Rectangle 1045">
<rect x="19" y="46" width="45" height="43" rx="13" fill="#D9D9D9"/>
<rect x="19" y="46" width="45" height="43" rx="13" fill="url(#paint0_linear_59_3095)"/>
</g>
<g id="Rectangle 1046" filter="url(#filter1_b_59_3095)">
<rect x="30" y="23" width="58" height="58" rx="10" fill="#5E44FF" fill-opacity="0.2"/>
<rect x="30.5" y="23.5" width="57" height="57" rx="9.5" stroke="white"/>
</g>
<path id="Vector" fill-rule="evenodd" clip-rule="evenodd" d="M56.8002 38.0556C55.696 38.1183 54.3964 38.252 53.4746 38.3975C50.9466 38.7968 49.5446 39.41 49.0795 40.32C48.7766 40.9125 48.4822 42.2274 48.2966 43.8162C48.2076 44.5787 48.2025 44.5966 48.0684 44.6283C47.7067 44.7139 47.2944 45.0273 47.1125 45.3549C47.035 45.4946 47.0207 45.7427 47.0068 47.1887C46.9912 48.8064 46.9944 48.8697 47.1067 49.1273C47.2208 49.3893 47.5301 49.7178 47.7604 49.8215L47.8777 49.8743L47.8799 53.9477C47.8816 57.2464 47.9002 58.3022 47.9772 59.4985C48.0793 61.0852 48.1066 61.2618 48.2917 61.5303C48.5423 61.894 48.6254 61.9218 49.4687 61.9238L50.2286 61.9256L50.2553 62.9809C50.2813 64.0083 50.2858 64.0425 50.4256 64.2773C50.7851 64.8813 51.682 65.1555 52.4977 64.9108C52.8112 64.8168 52.9332 64.7457 53.166 64.5215C53.3561 64.3383 53.4701 64.1771 53.509 64.0362C53.5411 63.92 53.5674 63.3923 53.5675 62.8622L53.5678 61.8993H59.7332H65.8986L65.9175 62.9413C65.9362 63.9696 65.9384 63.9867 66.0845 64.2322C66.2534 64.5158 66.4677 64.6933 66.8477 64.864C67.2246 65.0334 67.9608 65.0334 68.3378 64.864C68.7177 64.6933 68.932 64.5158 69.1009 64.2322C69.247 63.9868 69.2493 63.969 69.2678 62.9483L69.2866 61.9133L69.8021 61.9185C70.3943 61.9245 70.6351 61.8588 70.8564 61.6308L71.0121 61.4703L71.0552 58.796C71.0788 57.3251 71.0878 54.7162 71.0751 52.9984L71.052 49.8751L71.1973 49.8251C71.4338 49.7437 71.7414 49.4406 71.8749 49.1574C71.9966 48.8992 71.9995 48.8571 72 47.31C72.0003 46.4392 71.9771 45.6462 71.9485 45.5478C71.8315 45.1448 71.4629 44.7994 71.012 44.6699L70.7394 44.5916L70.6453 43.8141C70.4233 41.9781 70.0697 40.7184 69.6089 40.1212C69.3228 39.7505 68.3954 39.2605 67.4433 38.9771C64.9581 38.2374 60.4577 37.8478 56.8002 38.0556ZM53.1404 41.4273V42.377H59.3915H65.6426V41.4273V40.4775H59.3915H53.1404V41.4273ZM50.9499 47.7588V52.1381H59.3915H67.8331V47.7588V43.3795H59.3915H50.9499V47.7588ZM52.8198 56.3644C52.5222 56.4492 52.0676 56.7856 51.8759 57.0629C51.4729 57.6458 51.467 58.4241 51.8613 59.0119C52.4706 59.9203 53.7824 60.0459 54.5733 59.2715C54.92 58.932 55.0835 58.5374 55.0835 58.0398C55.0835 57.6909 55.0599 57.5882 54.9111 57.2897C54.7234 56.9132 54.4449 56.6413 54.0565 56.4557C53.7821 56.3245 53.1291 56.2763 52.8198 56.3644ZM65.0654 56.3636C64.7816 56.4485 64.377 56.7189 64.196 56.9446C63.4872 57.8283 63.7995 59.1441 64.8312 59.6217C65.2453 59.8134 65.9178 59.8234 66.2878 59.6434C66.6824 59.4513 66.9586 59.1818 67.1462 58.8054C67.2958 58.5053 67.3185 58.4052 67.3185 58.0476C67.3185 57.6899 67.2958 57.5899 67.1462 57.2897C66.9583 56.9129 66.6814 56.6428 66.2878 56.4525C66.0124 56.3195 65.3692 56.2727 65.0654 56.3636Z" fill="url(#paint1_linear_59_3095)" fill-opacity="0.7"/>
</g>
<defs>
<filter id="filter0_f_59_3095" x="0" y="0" width="125" height="123" filterUnits="userSpaceOnUse" color-interpolation-filters="sRGB">
<feFlood flood-opacity="0" result="BackgroundImageFix"/>
<feBlend mode="normal" in="SourceGraphic" in2="BackgroundImageFix" result="shape"/>
<feGaussianBlur stdDeviation="17" result="effect1_foregroundBlur_59_3095"/>
</filter>
<filter id="filter1_b_59_3095" x="8" y="1" width="102" height="102" filterUnits="userSpaceOnUse" color-interpolation-filters="sRGB">
<feFlood flood-opacity="0" result="BackgroundImageFix"/>
<feGaussianBlur in="BackgroundImageFix" stdDeviation="11"/>
<feComposite in2="SourceAlpha" operator="in" result="effect1_backgroundBlur_59_3095"/>
<feBlend mode="normal" in="SourceGraphic" in2="effect1_backgroundBlur_59_3095" result="shape"/>
</filter>
<linearGradient id="paint0_linear_59_3095" x1="37.6444" y1="88.8686" x2="37.4971" y2="44.6363" gradientUnits="userSpaceOnUse">
<stop stop-color="#6764FF"/>
<stop offset="1" stop-color="#A394FF"/>
</linearGradient>
<linearGradient id="paint1_linear_59_3095" x1="61.4578" y1="51.7872" x2="92.3735" y2="42.6993" gradientUnits="userSpaceOnUse">
<stop stop-color="white"/>
<stop offset="1" stop-color="white" stop-opacity="0"/>
</linearGradient>
</defs>
</svg>
