<svg width="69" height="66" viewBox="0 0 69 66" fill="none" xmlns="http://www.w3.org/2000/svg">
<rect y="23" width="45" height="43" rx="13" fill="#D9D9D9"/>
<rect y="23" width="45" height="43" rx="13" fill="url(#paint0_linear_59_250)"/>
<g filter="url(#filter0_b_59_250)">
<rect x="11" width="58" height="58" rx="10" fill="#5E44FF" fill-opacity="0.2"/>
<rect x="11.5" y="0.5" width="57" height="57" rx="9.5" stroke="white"/>
</g>
<path fill-rule="evenodd" clip-rule="evenodd" d="M37.8002 15.0556C36.696 15.1183 35.3964 15.252 34.4746 15.3975C31.9466 15.7968 30.5446 16.41 30.0795 17.32C29.7766 17.9125 29.4822 19.2274 29.2966 20.8162C29.2076 21.5787 29.2025 21.5966 29.0684 21.6283C28.7067 21.7139 28.2944 22.0273 28.1125 22.3549C28.035 22.4946 28.0207 22.7427 28.0068 24.1887C27.9912 25.8064 27.9944 25.8697 28.1067 26.1273C28.2208 26.3893 28.5301 26.7178 28.7604 26.8215L28.8777 26.8743L28.8799 30.9477C28.8816 34.2464 28.9002 35.3022 28.9772 36.4985C29.0793 38.0852 29.1066 38.2618 29.2917 38.5303C29.5423 38.894 29.6254 38.9218 30.4687 38.9238L31.2286 38.9256L31.2553 39.9809C31.2813 41.0083 31.2858 41.0425 31.4256 41.2773C31.7851 41.8813 32.682 42.1555 33.4977 41.9108C33.8112 41.8168 33.9332 41.7457 34.166 41.5215C34.3561 41.3383 34.4701 41.1771 34.509 41.0362C34.5411 40.92 34.5674 40.3923 34.5675 39.8622L34.5678 38.8993H40.7332H46.8986L46.9175 39.9413C46.9362 40.9696 46.9384 40.9867 47.0845 41.2322C47.2534 41.5158 47.4677 41.6933 47.8477 41.864C48.2246 42.0334 48.9608 42.0334 49.3378 41.864C49.7177 41.6933 49.932 41.5158 50.1009 41.2322C50.247 40.9868 50.2493 40.969 50.2678 39.9483L50.2866 38.9133L50.8021 38.9185C51.3943 38.9245 51.6351 38.8588 51.8564 38.6308L52.0121 38.4703L52.0552 35.796C52.0788 34.3251 52.0878 31.7162 52.0751 29.9984L52.052 26.8751L52.1973 26.8251C52.4338 26.7437 52.7414 26.4406 52.8749 26.1574C52.9966 25.8992 52.9995 25.8571 53 24.31C53.0003 23.4392 52.9771 22.6462 52.9485 22.5478C52.8315 22.1448 52.4629 21.7994 52.012 21.6699L51.7394 21.5916L51.6453 20.8141C51.4233 18.9781 51.0697 17.7184 50.6089 17.1212C50.3228 16.7505 49.3954 16.2605 48.4433 15.9771C45.9581 15.2374 41.4577 14.8478 37.8002 15.0556ZM34.1404 18.4273V19.377H40.3915H46.6426V18.4273V17.4775H40.3915H34.1404V18.4273ZM31.9499 24.7588V29.1381H40.3915H48.8331V24.7588V20.3795H40.3915H31.9499V24.7588ZM33.8198 33.3644C33.5222 33.4492 33.0676 33.7856 32.8759 34.0629C32.4729 34.6458 32.467 35.4241 32.8613 36.0119C33.4706 36.9203 34.7824 37.0459 35.5733 36.2715C35.92 35.932 36.0835 35.5374 36.0835 35.0398C36.0835 34.6909 36.0599 34.5882 35.9111 34.2897C35.7234 33.9132 35.4449 33.6413 35.0565 33.4557C34.7821 33.3245 34.1291 33.2763 33.8198 33.3644ZM46.0654 33.3636C45.7816 33.4485 45.377 33.7189 45.196 33.9446C44.4872 34.8283 44.7995 36.1441 45.8312 36.6217C46.2453 36.8134 46.9178 36.8234 47.2878 36.6434C47.6824 36.4513 47.9586 36.1818 48.1462 35.8054C48.2958 35.5053 48.3185 35.4052 48.3185 35.0476C48.3185 34.6899 48.2958 34.5899 48.1462 34.2897C47.9583 33.9129 47.6814 33.6428 47.2878 33.4525C47.0124 33.3195 46.3692 33.2727 46.0654 33.3636Z" fill="url(#paint1_linear_59_250)" fill-opacity="0.7"/>
<defs>
<filter id="filter0_b_59_250" x="-11" y="-22" width="102" height="102" filterUnits="userSpaceOnUse" color-interpolation-filters="sRGB">
<feFlood flood-opacity="0" result="BackgroundImageFix"/>
<feGaussianBlur in="BackgroundImageFix" stdDeviation="11"/>
<feComposite in2="SourceAlpha" operator="in" result="effect1_backgroundBlur_59_250"/>
<feBlend mode="normal" in="SourceGraphic" in2="effect1_backgroundBlur_59_250" result="shape"/>
</filter>
<linearGradient id="paint0_linear_59_250" x1="18.6444" y1="65.8686" x2="18.4971" y2="21.6363" gradientUnits="userSpaceOnUse">
<stop stop-color="#6764FF"/>
<stop offset="1" stop-color="#A394FF"/>
</linearGradient>
<linearGradient id="paint1_linear_59_250" x1="42.4578" y1="28.7872" x2="73.3735" y2="19.6993" gradientUnits="userSpaceOnUse">
<stop stop-color="white"/>
<stop offset="1" stop-color="white" stop-opacity="0"/>
</linearGradient>
</defs>
</svg>
