<svg width="94" height="61" viewBox="0 0 94 61" fill="none" xmlns="http://www.w3.org/2000/svg">
<rect x="94" y="19.8645" width="41" height="68" rx="10" transform="rotate(90 94 19.8645)" fill="url(#paint0_linear_59_228)"/>
<g filter="url(#filter0_b_59_228)">
<rect x="84.0918" width="50.6856" height="84.092" rx="10" transform="rotate(90 84.0918 0)" fill="#5E44FF" fill-opacity="0.2"/>
<rect x="83.5918" y="0.5" width="49.6856" height="83.092" rx="9.5" transform="rotate(90 83.5918 0.5)" stroke="white"/>
</g>
<g filter="url(#filter1_b_59_228)">
<path fill-rule="evenodd" clip-rule="evenodd" d="M57.0086 14.0165C55.8727 14.1026 54.2876 14.4836 53.4796 14.8651C53.2753 14.9614 51.487 16.0854 49.5057 17.3627L45.9033 19.6851L39.1415 21.0437C35.4226 21.7909 32.2717 22.4359 32.1396 22.477C31.4192 22.7013 31.3722 23.7319 32.0684 24.0395C32.2207 24.1067 33.3354 24.2402 35.1844 24.4126C36.7678 24.5603 38.0626 24.6976 38.0615 24.7179C38.0598 24.7529 32.682 28.2428 32.5572 28.2899C32.5248 28.3022 31.2513 27.761 29.7272 27.0871C26.8306 25.8066 25.9622 25.4807 25.1019 25.3518C24.0131 25.1886 23.2688 25.5104 23.0535 26.2376C22.9387 26.6255 23.0139 27.2179 23.2284 27.6152C23.4064 27.9447 28.7157 34.482 29.0362 34.7663C29.1899 34.9027 29.3131 34.9419 29.5869 34.9419C29.9096 34.9419 30.0304 34.8842 31.0111 34.2608C31.92 33.683 32.6444 33.3222 35.7844 31.8832C37.8204 30.9502 39.4976 30.1977 39.5118 30.211C39.5259 30.2244 39.2894 31.0729 38.9863 32.0968C38.6831 33.1207 38.4351 34.0564 38.435 34.1763C38.4349 34.2961 38.5113 34.5016 38.6048 34.6329C38.928 35.0872 39.604 35.1263 40.0071 34.714C40.1112 34.6075 41.1625 33.13 42.3432 31.4307C44.3562 28.5334 44.5736 28.249 45.8349 26.864L47.1799 25.3871L51.5897 22.5417C54.0151 20.9767 56.9537 19.0856 58.1199 18.3391C59.2862 17.5927 60.3656 16.8672 60.5185 16.7271C61.279 16.0298 61.1173 14.96 60.1839 14.5145C59.423 14.1514 58.0567 13.937 57.0086 14.0165Z" fill="url(#paint1_linear_59_228)" fill-opacity="0.7"/>
<path d="M53.5863 15.0911L53.5863 15.0912C53.5506 15.108 53.4149 15.1871 53.1814 15.3297C52.9554 15.4678 52.6518 15.6566 52.2921 15.8827C51.5728 16.3348 50.6312 16.9346 49.6412 17.5729L49.5257 17.3937L49.6412 17.5729L46.0388 19.8952L45.999 19.9208L45.9525 19.9302L39.1908 21.2888L39.151 21.0908L39.1908 21.2888C37.3315 21.6623 35.6144 22.0103 34.3456 22.27C33.7112 22.3999 33.1892 22.5077 32.8177 22.5855C32.6318 22.6244 32.4841 22.6557 32.3789 22.6786C32.3263 22.69 32.2849 22.6992 32.2551 22.706C32.2331 22.7111 32.2212 22.714 32.2163 22.7152C32.2136 22.7159 32.213 22.716 32.2139 22.7158C31.7245 22.8681 31.6744 23.5921 32.1694 23.8108C32.1682 23.8102 32.1675 23.81 32.1676 23.8099C32.1676 23.8097 32.1824 23.8147 32.2225 23.8233C32.2651 23.8324 32.3236 23.843 32.3988 23.855C32.549 23.8789 32.7567 23.9069 33.0199 23.9384C33.5455 24.0013 34.284 24.0776 35.2077 24.1637L35.1844 24.4126L35.2077 24.1637C36.0001 24.2376 36.7207 24.309 37.2435 24.3644C37.5047 24.3921 37.7176 24.416 37.8657 24.4343C37.9394 24.4434 37.9992 24.4514 38.0416 24.458C38.062 24.4612 38.0828 24.4647 38.1004 24.4685C38.1077 24.4702 38.1231 24.4736 38.1399 24.4795C38.1465 24.4818 38.1672 24.4891 38.1906 24.5033C38.2018 24.5101 38.2262 24.526 38.2501 24.5535C38.2738 24.5808 38.3157 24.6421 38.3112 24.7307M53.5863 15.0911L32.5572 28.2899L32.6456 28.5238C32.6711 28.5142 32.698 28.4985 32.7073 28.4931L32.709 28.4921C32.7253 28.4827 32.7458 28.4704 32.7696 28.4559C32.8174 28.4268 32.8828 28.3862 32.9626 28.336C33.1225 28.2354 33.3435 28.0946 33.6045 27.9273C34.1268 27.5926 34.8112 27.1506 35.4916 26.7091C36.172 26.2675 36.8487 25.8263 37.3556 25.4931C37.609 25.3265 37.8204 25.1866 37.9689 25.0871C38.0429 25.0375 38.1022 24.9972 38.1436 24.9684C38.1639 24.9543 38.1818 24.9416 38.1954 24.9315C38.2017 24.9268 38.2104 24.9201 38.2189 24.9129C38.2225 24.9099 38.2312 24.9025 38.2408 24.8925C38.2452 24.8879 38.2551 24.8773 38.2657 24.8623L38.2661 24.8618C38.2708 24.8553 38.3074 24.805 38.3112 24.7307M53.5863 15.0911C54.3603 14.7258 55.914 14.3501 57.0275 14.2658L57.0113 14.0519M53.5863 15.0911L57.0113 14.0519M38.3112 24.7307L38.0615 24.7179L38.3112 24.7301C38.3112 24.7303 38.3112 24.7305 38.3112 24.7307ZM57.0113 14.0519L57.0275 14.2658C58.0427 14.1888 59.3633 14.3999 60.0763 14.7402C60.4753 14.9306 60.6908 15.2431 60.7392 15.5637C60.7877 15.8843 60.6742 16.2451 60.3495 16.5428C60.3256 16.5648 60.244 16.6266 60.0991 16.7288C59.9603 16.8267 59.7763 16.9527 59.5598 17.0982C59.1268 17.3892 58.567 17.7562 57.9852 18.1285L58.1199 18.3391L57.9852 18.1285C56.8185 18.8753 53.8796 20.7666 51.4542 22.3316L47.0444 25.177L47.017 25.1947M57.0113 14.0519L47.017 25.1947M47.017 25.1947L46.9951 25.2187L45.65 26.6957L45.8349 26.864L47.017 25.1947Z" stroke="white" stroke-width="0.5"/>
</g>
<defs>
<filter id="filter0_b_59_228" x="-22" y="-22" width="128.092" height="94.6855" filterUnits="userSpaceOnUse" color-interpolation-filters="sRGB">
<feFlood flood-opacity="0" result="BackgroundImageFix"/>
<feGaussianBlur in="BackgroundImageFix" stdDeviation="11"/>
<feComposite in2="SourceAlpha" operator="in" result="effect1_backgroundBlur_59_228"/>
<feBlend mode="normal" in="SourceGraphic" in2="effect1_backgroundBlur_59_228" result="shape"/>
</filter>
<filter id="filter1_b_59_228" x="-25" y="-34" width="134" height="117" filterUnits="userSpaceOnUse" color-interpolation-filters="sRGB">
<feFlood flood-opacity="0" result="BackgroundImageFix"/>
<feGaussianBlur in="BackgroundImageFix" stdDeviation="24"/>
<feComposite in2="SourceAlpha" operator="in" result="effect1_backgroundBlur_59_228"/>
<feBlend mode="normal" in="SourceGraphic" in2="effect1_backgroundBlur_59_228" result="shape"/>
</filter>
<linearGradient id="paint0_linear_59_228" x1="110.987" y1="87.6567" x2="110.583" y2="17.7094" gradientUnits="userSpaceOnUse">
<stop stop-color="#6764FF"/>
<stop offset="1" stop-color="#A394FF"/>
</linearGradient>
<linearGradient id="paint1_linear_59_228" x1="44.9759" y1="24.7234" x2="83.3606" y2="2.67234" gradientUnits="userSpaceOnUse">
<stop stop-color="white"/>
<stop offset="1" stop-color="white" stop-opacity="0"/>
</linearGradient>
</defs>
</svg>
