<svg width="73" height="73" viewBox="0 0 73 73" fill="none" xmlns="http://www.w3.org/2000/svg">
<rect x="2" y="9" width="43" height="44" rx="13" fill="#D9D9D9"/>
<rect x="2" y="9" width="43" height="44" rx="13" fill="url(#paint0_linear_59_246)"/>
<g filter="url(#filter0_b_59_246)">
<path d="M36.2147 0.878116C36.3045 0.601723 36.6955 0.601722 36.7853 0.878115L44.6274 25.0136C44.6676 25.1372 44.7828 25.2209 44.9127 25.2209H70.2903C70.5809 25.2209 70.7017 25.5928 70.4666 25.7636L49.9357 40.6801C49.8306 40.7565 49.7866 40.8919 49.8268 41.0155L57.6688 65.151C57.7587 65.4274 57.4423 65.6572 57.2072 65.4864L36.6763 50.5699C36.5712 50.4935 36.4288 50.4935 36.3237 50.5699L15.7928 65.4864C15.5577 65.6572 15.2413 65.4274 15.3312 65.151L23.1732 41.0155C23.2134 40.8919 23.1694 40.7565 23.0643 40.6801L2.53341 25.7636C2.29829 25.5928 2.41913 25.2209 2.70974 25.2209H28.0873C28.2172 25.2209 28.3324 25.1372 28.3726 25.0136L36.2147 0.878116Z" fill="#5E44FF" fill-opacity="0.2"/>
<path d="M36.2147 0.878116C36.3045 0.601723 36.6955 0.601722 36.7853 0.878115L44.6274 25.0136C44.6676 25.1372 44.7828 25.2209 44.9127 25.2209H70.2903C70.5809 25.2209 70.7017 25.5928 70.4666 25.7636L49.9357 40.6801C49.8306 40.7565 49.7866 40.8919 49.8268 41.0155L57.6688 65.151C57.7587 65.4274 57.4423 65.6572 57.2072 65.4864L36.6763 50.5699C36.5712 50.4935 36.4288 50.4935 36.3237 50.5699L15.7928 65.4864C15.5577 65.6572 15.2413 65.4274 15.3312 65.151L23.1732 41.0155C23.2134 40.8919 23.1694 40.7565 23.0643 40.6801L2.53341 25.7636C2.29829 25.5928 2.41913 25.2209 2.70974 25.2209H28.0873C28.2172 25.2209 28.3324 25.1372 28.3726 25.0136L36.2147 0.878116Z" stroke="white"/>
</g>
<path d="M42 30V43H39.701V37.4286H33.299V43H31V30H33.299V35.3671H39.701V30H42Z" fill="url(#paint1_linear_59_246)" fill-opacity="0.7" stroke="white" stroke-width="0.5"/>
<defs>
<filter id="filter0_b_59_246" x="-20.0918" y="-21.8292" width="113.184" height="109.877" filterUnits="userSpaceOnUse" color-interpolation-filters="sRGB">
<feFlood flood-opacity="0" result="BackgroundImageFix"/>
<feGaussianBlur in="BackgroundImageFix" stdDeviation="11"/>
<feComposite in2="SourceAlpha" operator="in" result="effect1_backgroundBlur_59_246"/>
<feBlend mode="normal" in="SourceGraphic" in2="effect1_backgroundBlur_59_246" result="shape"/>
</filter>
<linearGradient id="paint0_linear_59_246" x1="19.8157" y1="52.8655" x2="19.6544" y2="7.60462" gradientUnits="userSpaceOnUse">
<stop stop-color="#6764FF"/>
<stop offset="1" stop-color="#A394FF"/>
</linearGradient>
<linearGradient id="paint1_linear_59_246" x1="37.3614" y1="36.6383" x2="51.1451" y2="32.9356" gradientUnits="userSpaceOnUse">
<stop stop-color="white"/>
<stop offset="1" stop-color="white" stop-opacity="0"/>
</linearGradient>
</defs>
</svg>
