<svg width="129" height="126" viewBox="0 0 129 126" fill="none" xmlns="http://www.w3.org/2000/svg">
<g id="Group 7048">
<g id="Ellipse 962" filter="url(#filter0_f_59_3089)">
<ellipse cx="64.5" cy="63" rx="30.5" ry="29" fill="#706BFF" fill-opacity="0.5"/>
</g>
<g id="Group 7043">
<g id="Rectangle 1044">
<rect x="34" y="33" width="43" height="44" rx="13" fill="#D9D9D9"/>
<rect x="34" y="33" width="43" height="44" rx="13" fill="url(#paint0_linear_59_3089)"/>
</g>
<g id="Star 41" filter="url(#filter1_b_59_3089)">
<path d="M68.2147 24.8781C68.3045 24.6017 68.6955 24.6017 68.7853 24.8781L76.6274 49.0136C76.6676 49.1372 76.7828 49.2209 76.9127 49.2209H102.29C102.581 49.2209 102.702 49.5928 102.467 49.7636L81.9357 64.6801C81.8306 64.7565 81.7866 64.8919 81.8268 65.0155L89.6688 89.151C89.7587 89.4274 89.4423 89.6572 89.2072 89.4864L68.6763 74.5699C68.5712 74.4935 68.4288 74.4935 68.3237 74.5699L47.7928 89.4864C47.5577 89.6572 47.2413 89.4274 47.3312 89.151L55.1732 65.0155C55.2134 64.8919 55.1694 64.7565 55.0643 64.6801L34.5334 49.7636C34.2983 49.5928 34.4191 49.2209 34.7097 49.2209H60.0873C60.2172 49.2209 60.3324 49.1372 60.3726 49.0136L68.2147 24.8781Z" fill="#5E44FF" fill-opacity="0.2"/>
<path d="M68.2147 24.8781C68.3045 24.6017 68.6955 24.6017 68.7853 24.8781L76.6274 49.0136C76.6676 49.1372 76.7828 49.2209 76.9127 49.2209H102.29C102.581 49.2209 102.702 49.5928 102.467 49.7636L81.9357 64.6801C81.8306 64.7565 81.7866 64.8919 81.8268 65.0155L89.6688 89.151C89.7587 89.4274 89.4423 89.6572 89.2072 89.4864L68.6763 74.5699C68.5712 74.4935 68.4288 74.4935 68.3237 74.5699L47.7928 89.4864C47.5577 89.6572 47.2413 89.4274 47.3312 89.151L55.1732 65.0155C55.2134 64.8919 55.1694 64.7565 55.0643 64.6801L34.5334 49.7636C34.2983 49.5928 34.4191 49.2209 34.7097 49.2209H60.0873C60.2172 49.2209 60.3324 49.1372 60.3726 49.0136L68.2147 24.8781Z" stroke="white"/>
</g>
<path id="H" d="M74 54V67H71.701V61.4286H65.299V67H63V54H65.299V59.3671H71.701V54H74Z" fill="url(#paint1_linear_59_3089)" fill-opacity="0.7" stroke="white" stroke-width="0.5"/>
</g>
</g>
<defs>
<filter id="filter0_f_59_3089" x="0" y="0" width="129" height="126" filterUnits="userSpaceOnUse" color-interpolation-filters="sRGB">
<feFlood flood-opacity="0" result="BackgroundImageFix"/>
<feBlend mode="normal" in="SourceGraphic" in2="BackgroundImageFix" result="shape"/>
<feGaussianBlur stdDeviation="17" result="effect1_foregroundBlur_59_3089"/>
</filter>
<filter id="filter1_b_59_3089" x="11.9082" y="2.17084" width="113.184" height="109.877" filterUnits="userSpaceOnUse" color-interpolation-filters="sRGB">
<feFlood flood-opacity="0" result="BackgroundImageFix"/>
<feGaussianBlur in="BackgroundImageFix" stdDeviation="11"/>
<feComposite in2="SourceAlpha" operator="in" result="effect1_backgroundBlur_59_3089"/>
<feBlend mode="normal" in="SourceGraphic" in2="effect1_backgroundBlur_59_3089" result="shape"/>
</filter>
<linearGradient id="paint0_linear_59_3089" x1="51.8157" y1="76.8655" x2="51.6544" y2="31.6046" gradientUnits="userSpaceOnUse">
<stop stop-color="#6764FF"/>
<stop offset="1" stop-color="#A394FF"/>
</linearGradient>
<linearGradient id="paint1_linear_59_3089" x1="69.3614" y1="60.6383" x2="83.1451" y2="56.9356" gradientUnits="userSpaceOnUse">
<stop stop-color="white"/>
<stop offset="1" stop-color="white" stop-opacity="0"/>
</linearGradient>
</defs>
</svg>
