<svg width="125" height="123" viewBox="0 0 125 123" fill="none" xmlns="http://www.w3.org/2000/svg">
<g filter="url(#filter0_f_59_226)">
<ellipse cx="62.5" cy="61.5" rx="28.5" ry="27.5" fill="#706BFF" fill-opacity="0.5"/>
</g>
<rect x="114" y="47.8645" width="41" height="68" rx="10" transform="rotate(90 114 47.8645)" fill="url(#paint0_linear_59_226)"/>
<g filter="url(#filter1_b_59_226)">
<rect x="104.092" y="28" width="50.6856" height="84.092" rx="10" transform="rotate(90 104.092 28)" fill="#5E44FF" fill-opacity="0.2"/>
<rect x="103.592" y="28.5" width="49.6856" height="83.092" rx="9.5" transform="rotate(90 103.592 28.5)" stroke="white"/>
</g>
<g filter="url(#filter2_b_59_226)">
<path fill-rule="evenodd" clip-rule="evenodd" d="M77.0086 42.0165C75.8727 42.1026 74.2876 42.4836 73.4796 42.8651C73.2753 42.9614 71.487 44.0854 69.5057 45.3627L65.9033 47.6851L59.1415 49.0437C55.4226 49.7909 52.2717 50.4359 52.1396 50.477C51.4192 50.7013 51.3722 51.7319 52.0684 52.0395C52.2207 52.1067 53.3354 52.2402 55.1844 52.4126C56.7678 52.5603 58.0626 52.6976 58.0615 52.7179C58.0598 52.7529 52.682 56.2428 52.5572 56.2899C52.5248 56.3022 51.2513 55.761 49.7272 55.0871C46.8306 53.8066 45.9622 53.4807 45.1019 53.3518C44.0131 53.1886 43.2688 53.5104 43.0535 54.2376C42.9387 54.6255 43.0139 55.2179 43.2284 55.6152C43.4064 55.9447 48.7157 62.482 49.0362 62.7663C49.1899 62.9027 49.3131 62.9419 49.5869 62.9419C49.9096 62.9419 50.0304 62.8842 51.0111 62.2608C51.92 61.683 52.6444 61.3222 55.7844 59.8832C57.8204 58.9502 59.4976 58.1977 59.5118 58.211C59.5259 58.2244 59.2894 59.0729 58.9863 60.0968C58.6831 61.1207 58.4351 62.0564 58.435 62.1763C58.4349 62.2961 58.5113 62.5016 58.6048 62.6329C58.928 63.0872 59.604 63.1263 60.0071 62.714C60.1112 62.6075 61.1625 61.13 62.3432 59.4307C64.3562 56.5334 64.5736 56.249 65.8349 54.864L67.1799 53.3871L71.5897 50.5417C74.0151 48.9767 76.9537 47.0856 78.1199 46.3391C79.2862 45.5927 80.3656 44.8672 80.5185 44.7271C81.279 44.0298 81.1173 42.96 80.1839 42.5145C79.423 42.1514 78.0567 41.937 77.0086 42.0165Z" fill="url(#paint1_linear_59_226)" fill-opacity="0.7"/>
<path d="M73.5863 43.0911L73.5863 43.0912C73.5506 43.108 73.4149 43.1871 73.1814 43.3297C72.9554 43.4678 72.6518 43.6566 72.2921 43.8827C71.5728 44.3348 70.6312 44.9346 69.6412 45.5729L69.5057 45.3627L69.6412 45.5729L66.0388 47.8952L65.999 47.9208L65.9525 47.9302L59.1908 49.2888L59.1415 49.0437L59.1908 49.2888C57.3315 49.6623 55.6144 50.0103 54.3456 50.27C53.7112 50.3999 53.1892 50.5077 52.8177 50.5855C52.6318 50.6244 52.4841 50.6557 52.3789 50.6786C52.3263 50.69 52.2849 50.6992 52.2551 50.706C52.233 50.7111 52.2212 50.714 52.2163 50.7152C52.2135 50.7159 52.213 50.716 52.214 50.7157L52.2139 50.7158C51.7249 50.868 51.6745 51.5909 52.1683 51.8103M73.5863 43.0911L52.1683 51.8103M73.5863 43.0911C74.3603 42.7258 75.914 42.3501 77.0275 42.2658L77.0086 42.0165M73.5863 43.0911L77.0086 42.0165M52.1683 51.8103C52.1678 51.8101 52.1675 51.8099 52.1676 51.8099C52.1676 51.8097 52.1824 51.8147 52.2225 51.8233C52.2651 51.8324 52.3236 51.843 52.3988 51.855C52.549 51.8789 52.7567 51.9069 53.0199 51.9384C53.5456 52.0013 54.284 52.0776 55.2077 52.1637L55.1844 52.4126L55.2077 52.1637C56.0001 52.2376 56.7207 52.309 57.2435 52.3644C57.5047 52.3921 57.7176 52.416 57.8657 52.4343C57.9394 52.4434 57.9992 52.4514 58.0416 52.458C58.062 52.4612 58.0828 52.4647 58.1004 52.4685C58.1077 52.4702 58.1231 52.4736 58.1399 52.4795C58.1465 52.4818 58.1672 52.4891 58.1906 52.5033C58.2018 52.5101 58.2262 52.526 58.2501 52.5535C58.2737 52.5807 58.3155 52.6418 58.3112 52.7301L52.1683 51.8103ZM45.1019 53.3518L45.0649 53.599C45.8849 53.7219 46.7198 54.0309 49.6262 55.3158C50.3889 55.653 51.0894 55.9573 51.6038 56.1759C51.8607 56.2851 52.0723 56.3734 52.2222 56.4338C52.2968 56.4639 52.3582 56.4879 52.403 56.5042C52.4249 56.5122 52.4464 56.5197 52.4648 56.5253C52.4734 56.5278 52.4867 56.5316 52.5014 56.5346C52.5084 56.536 52.5215 56.5384 52.5376 56.5395L52.5384 56.5396C52.5475 56.5402 52.5933 56.5436 52.6458 56.5237C52.6457 56.5237 52.6457 56.5238 52.6456 56.5238L45.1019 53.3518ZM45.1019 53.3518L45.0649 53.599C44.5489 53.5217 44.1417 53.5639 43.8494 53.6903C43.5655 53.813 43.379 54.0189 43.2933 54.3086C43.2485 54.4598 43.2371 54.6681 43.2655 54.8914C43.2937 55.1133 43.3585 55.3297 43.4483 55.4962C43.4478 55.4953 43.4479 55.4954 43.4487 55.4967C43.4503 55.4993 43.4552 55.5069 43.4653 55.5215C43.4786 55.5407 43.497 55.5662 43.5206 55.5982C43.5678 55.6621 43.6328 55.7477 43.7138 55.8526C43.8756 56.062 44.098 56.3445 44.3616 56.676C44.8887 57.3387 45.5785 58.195 46.273 59.0501C46.9674 59.9052 47.6661 60.7586 48.211 61.4158C48.4835 61.7444 48.7171 62.0234 48.8922 62.2287C48.9798 62.3314 49.0521 62.4149 49.107 62.4766C49.1344 62.5075 49.1568 62.5321 49.1741 62.5506C49.1828 62.5598 49.1896 62.5669 49.1949 62.5722C49.1994 62.5767 49.2017 62.5788 49.2021 62.5793L49.2021 62.5793C49.2614 62.6318 49.3008 62.6538 49.3425 62.6671C49.39 62.6822 49.4588 62.6919 49.5869 62.6919C49.7165 62.6919 49.7896 62.6836 49.9444 62.6096C50.1208 62.5252 50.3816 62.3647 50.8769 62.0498L51 62.2433L50.8769 62.0498C51.8029 61.4612 52.5437 61.0933 55.6802 59.6559C56.6986 59.1892 57.6276 58.7676 58.3039 58.4641C58.642 58.3125 58.9176 58.1901 59.1098 58.1063C59.2057 58.0645 59.2822 58.0317 59.3357 58.0097C59.362 57.9988 59.3853 57.9895 59.4033 57.9828C59.4116 57.9798 59.4235 57.9755 59.4358 57.9719C59.4409 57.9705 59.4541 57.9667 59.4707 57.964C59.4781 57.9629 59.4965 57.9602 59.52 57.961L59.5209 57.961C59.5321 57.9613 59.6136 57.9633 59.6835 58.0294C59.7463 58.0887 59.7572 58.1604 59.7589 58.1716L59.7591 58.1725C59.7626 58.1944 59.7625 58.2121 59.7623 58.22C59.7619 58.2371 59.76 58.2516 59.759 58.2586C59.7567 58.2746 59.7533 58.2917 59.7501 58.3066C59.7433 58.3378 59.7331 58.3797 59.7204 58.4293C59.6949 58.5293 59.6566 58.6706 59.6088 58.8421C59.5131 59.1855 59.3778 59.6549 59.226 60.1677C59.075 60.6779 58.9378 61.1654 58.8386 61.5396C58.789 61.7269 58.7492 61.8843 58.7221 62.0013C58.7084 62.06 58.6984 62.1067 58.6919 62.1409C58.6872 62.1662 58.6856 62.1782 58.6852 62.1811C58.6864 62.2014 58.695 62.2482 58.7191 62.3132C58.7439 62.3799 58.7769 62.4437 58.8084 62.488L58.8085 62.488C59.0353 62.8069 59.5268 62.8476 59.8283 62.5393L59.8284 62.5392L59.8286 62.5389C59.8308 62.5363 59.8489 62.5147 59.89 62.4607C59.9296 62.4086 59.9828 62.337 60.0482 62.2475C60.1789 62.0687 60.3563 61.8219 60.5678 61.5247C60.9905 60.9305 61.548 60.1371 62.1379 59.288C64.1528 56.3881 64.3776 56.093 65.65 54.6957L45.1019 53.3518ZM77.0086 42.0165L77.0275 42.2658C78.0427 42.1888 79.3633 42.3999 80.0763 42.7402C80.4753 42.9306 80.6908 43.2431 80.7392 43.5638C80.7877 43.8843 80.6742 44.2451 80.3495 44.5428C80.3256 44.5648 80.244 44.6266 80.0991 44.7288C79.9603 44.8267 79.7763 44.9527 79.5598 45.0982C79.1268 45.3892 78.567 45.7562 77.9852 46.1285L78.1199 46.3391L77.0086 42.0165Z" stroke="white" stroke-width="0.5"/>
</g>
<defs>
<filter id="filter0_f_59_226" x="0" y="0" width="125" height="123" filterUnits="userSpaceOnUse" color-interpolation-filters="sRGB">
<feFlood flood-opacity="0" result="BackgroundImageFix"/>
<feBlend mode="normal" in="SourceGraphic" in2="BackgroundImageFix" result="shape"/>
<feGaussianBlur stdDeviation="17" result="effect1_foregroundBlur_59_226"/>
</filter>
<filter id="filter1_b_59_226" x="-2" y="6" width="128.092" height="94.6855" filterUnits="userSpaceOnUse" color-interpolation-filters="sRGB">
<feFlood flood-opacity="0" result="BackgroundImageFix"/>
<feGaussianBlur in="BackgroundImageFix" stdDeviation="11"/>
<feComposite in2="SourceAlpha" operator="in" result="effect1_backgroundBlur_59_226"/>
<feBlend mode="normal" in="SourceGraphic" in2="effect1_backgroundBlur_59_226" result="shape"/>
</filter>
<filter id="filter2_b_59_226" x="-5" y="-6" width="134" height="117" filterUnits="userSpaceOnUse" color-interpolation-filters="sRGB">
<feFlood flood-opacity="0" result="BackgroundImageFix"/>
<feGaussianBlur in="BackgroundImageFix" stdDeviation="24"/>
<feComposite in2="SourceAlpha" operator="in" result="effect1_backgroundBlur_59_226"/>
<feBlend mode="normal" in="SourceGraphic" in2="effect1_backgroundBlur_59_226" result="shape"/>
</filter>
<linearGradient id="paint0_linear_59_226" x1="130.987" y1="115.657" x2="130.583" y2="45.7094" gradientUnits="userSpaceOnUse">
<stop stop-color="#6764FF"/>
<stop offset="1" stop-color="#A394FF"/>
</linearGradient>
<linearGradient id="paint1_linear_59_226" x1="64.9759" y1="52.7234" x2="103.361" y2="30.6723" gradientUnits="userSpaceOnUse">
<stop stop-color="white"/>
<stop offset="1" stop-color="white" stop-opacity="0"/>
</linearGradient>
</defs>
</svg>
