<svg width="163" height="75" viewBox="0 0 163 75" fill="none" xmlns="http://www.w3.org/2000/svg">
<path d="M119.08 14.0724V25.8898C119.08 28.6749 118.339 30.8018 116.859 32.2707C115.379 33.7204 113.28 34.4453 110.563 34.4453C109.214 34.4453 108.005 34.245 106.937 33.8444C105.887 33.4438 105.025 32.8811 104.351 32.1562C103.657 32.8811 102.786 33.4438 101.737 33.8444C100.687 34.245 99.4973 34.4453 98.1668 34.4453C95.4497 34.4453 93.3509 33.7204 91.8705 32.2707C90.3901 30.8018 89.6499 28.6749 89.6499 25.8898V14.0724H94.2035V25.7468C94.2035 27.3682 94.5314 28.57 95.1873 29.3521C95.8432 30.1151 96.8176 30.4966 98.1106 30.4966C100.753 30.4966 102.074 28.9133 102.074 25.7468V14.0724H106.628V25.7468C106.628 28.9133 107.958 30.4966 110.619 30.4966C113.205 30.4966 114.498 28.9133 114.498 25.7468V14.0724H119.08Z" fill="#2E323E"/>
<path d="M132.436 13.729C134.254 13.729 135.837 14.0914 137.186 14.8163C138.536 15.5412 139.585 16.6094 140.335 18.0211C141.084 19.4327 141.459 21.14 141.459 23.1429V34.102H136.905V29.2949H127.911V34.102H123.413V23.1429C123.413 21.14 123.788 19.4327 124.538 18.0211C125.287 16.6094 126.337 15.5412 127.686 14.8163C129.035 14.0914 130.618 13.729 132.436 13.729ZM136.905 25.5751V22.7137C136.905 21.0541 136.503 19.8046 135.697 18.9653C134.891 18.1069 133.795 17.6777 132.408 17.6777C131.003 17.6777 129.897 18.1069 129.091 18.9653C128.304 19.8046 127.911 21.0541 127.911 22.7137V25.5751H136.905Z" fill="#2E323E"/>
<path d="M163 14.0724V27.8356C163 30.8495 162.175 33.1577 160.526 34.7601C158.877 36.3815 156.601 37.1922 153.696 37.1922C152.028 37.1922 150.501 36.9538 149.114 36.4769C147.728 36.0191 146.547 35.361 145.573 34.5026L147.343 31.0689C149.124 32.5377 151.204 33.2722 153.584 33.2722C155.233 33.2722 156.451 32.8525 157.238 32.0132C158.043 31.1547 158.446 29.8385 158.446 28.0645V26.8341C157.135 28.4746 155.279 29.2949 152.881 29.2949C150.388 29.2949 148.468 28.5795 147.119 27.1488C145.788 25.6991 145.123 23.6198 145.123 20.911V14.0724H149.676V20.6249C149.676 22.1891 150.042 23.3718 150.773 24.173C151.503 24.9742 152.534 25.3748 153.865 25.3748C155.27 25.3748 156.385 24.9551 157.21 24.1158C158.034 23.2764 158.446 22.0079 158.446 20.3102V14.0724H163Z" fill="#2E323E"/>
<path d="M89.8186 40.8977H94.3722V57.1503H104.238V60.9273H89.8186V40.8977Z" fill="#2E323E"/>
<path d="M113.529 44.6175V57.2075H116.93V60.9273H105.546V57.2075H108.975V44.6175H105.546V40.8977H116.93V44.6175H113.529Z" fill="#2E323E"/>
<path d="M126.835 61.2707C125.28 61.2707 123.771 61.0608 122.31 60.6412C120.867 60.2024 119.705 59.6397 118.824 58.953L120.37 55.4621C121.214 56.0916 122.216 56.5971 123.378 56.9786C124.54 57.3601 125.702 57.5509 126.863 57.5509C128.156 57.5509 129.112 57.3601 129.73 56.9786C130.349 56.578 130.658 56.0534 130.658 55.4049C130.658 54.928 130.471 54.5369 130.096 54.2317C129.74 53.9074 129.271 53.6499 128.69 53.4591C128.128 53.2684 127.36 53.0585 126.386 52.8296C124.886 52.4672 123.659 52.1047 122.703 51.7423C121.748 51.3799 120.923 50.7981 120.23 49.9969C119.555 49.1957 119.218 48.1274 119.218 46.7921C119.218 45.6285 119.527 44.5793 120.145 43.6446C120.764 42.6908 121.691 41.9373 122.928 41.3841C124.184 40.8309 125.711 40.5543 127.51 40.5543C128.765 40.5543 129.993 40.707 131.192 41.0122C132.391 41.3174 133.441 41.7561 134.34 42.3284L132.935 45.8479C131.117 44.7987 129.299 44.2741 127.482 44.2741C126.207 44.2741 125.261 44.484 124.643 44.9036C124.043 45.3233 123.743 45.8765 123.743 46.5632C123.743 47.25 124.09 47.765 124.783 48.1084C125.495 48.4327 126.573 48.7569 128.016 49.0812C129.515 49.4437 130.742 49.8061 131.698 50.1686C132.654 50.531 133.469 51.1033 134.143 51.8854C134.837 52.6675 135.184 53.7262 135.184 55.0615C135.184 56.206 134.865 57.2552 134.228 58.209C133.609 59.1437 132.672 59.8877 131.417 60.4409C130.161 60.9941 128.634 61.2707 126.835 61.2707Z" fill="#2E323E"/>
<path d="M152.438 46.506C150.752 45.5141 148.943 44.875 147.013 44.5889V60.9273H142.46V44.5889C140.53 44.875 138.712 45.5141 137.007 46.506L135.461 43.0437C136.81 42.2235 138.272 41.6035 139.846 41.1839C141.42 40.7642 143.041 40.5543 144.708 40.5543C146.395 40.5543 148.025 40.7642 149.599 41.1839C151.192 41.6035 152.654 42.2235 153.984 43.0437L152.438 46.506Z" fill="#2E323E"/>
<path d="M0 37.4999C0 16.8698 17.0281 0.145752 38.0333 0.145752C59.0386 0.145752 76.0667 16.8698 76.0667 37.4999C76.0667 58.1301 59.0386 74.8541 38.0333 74.8541C17.0281 74.8541 0 58.1301 0 37.4999Z" fill="#DFFF57"/>
<path fill-rule="evenodd" clip-rule="evenodd" d="M59.5453 23.702C60.2905 26.1407 59.092 28.7784 56.8683 29.5934C54.5884 30.429 51.4088 32.3514 49.2 35.4585C47.1263 38.3754 45.7155 42.5748 47.0431 48.7592C47.5805 51.2626 46.1656 53.7679 43.8828 54.355C41.6 54.9422 39.3138 53.3888 38.7764 50.8854C36.8462 41.8941 38.8831 34.8183 42.5 29.7304C45.9818 24.8327 50.7358 22.0207 54.1697 20.7621C56.3934 19.9471 58.8001 21.2633 59.5453 23.702Z" fill="#2E323E"/>
<path fill-rule="evenodd" clip-rule="evenodd" d="M54.4503 20.7796C57.1021 19.9056 59.9725 21.3168 60.8614 23.9326C61.7505 26.549 60.3203 29.3785 57.668 30.2527C55.2664 31.0442 51.9151 32.8692 49.597 35.8013C47.4403 38.5293 45.9493 42.4691 47.3516 48.3431C47.9928 51.0289 46.3044 53.7164 43.5817 54.3461C40.8596 54.9756 38.1328 53.3102 37.4917 50.6248C35.3705 41.7397 37.6084 34.7139 41.6063 29.657C45.4431 24.8039 50.6724 22.0247 54.4503 20.7796ZM59.9662 24.2292C59.2431 22.1015 56.9075 20.9526 54.7493 21.6639C51.0994 22.8668 46.0454 25.5571 42.3507 30.2306C38.5248 35.0699 36.3567 41.8072 38.4107 50.4109C38.9321 52.5948 41.1507 53.9508 43.3664 53.4384C45.5816 52.926 46.9538 50.7404 46.4326 48.557C44.9631 42.4018 46.5238 38.1735 48.8527 35.2277C51.3125 32.1164 54.8389 30.2022 57.369 29.3684C59.5266 28.6572 60.689 26.3563 59.9662 24.2292Z" fill="#DFFF57"/>
<path fill-rule="evenodd" clip-rule="evenodd" d="M55.9106 47.1893C54.2486 49.0687 51.377 49.2434 49.4966 47.5794C47.5687 45.8734 44.2401 43.8631 40.4304 43.3301C36.8537 42.8297 32.5483 43.5687 28.0323 47.8138C26.2043 49.5321 23.3286 49.4417 21.6091 47.6119C19.8897 45.782 19.9777 42.9056 21.8057 41.1873C28.3713 35.0155 35.4436 33.4547 41.682 34.3275C47.6874 35.1677 52.6115 38.2038 55.5153 40.7734C57.3956 42.4374 57.5726 45.3098 55.9106 47.1893Z" fill="#2E323E"/>
<path fill-rule="evenodd" clip-rule="evenodd" d="M20.6127 40.1486C27.359 33.7101 34.655 32.0641 41.1023 32.98C47.2897 33.8589 52.3521 37.0303 55.3391 39.7139C57.4357 41.5976 57.6334 44.8496 55.7797 46.9777C53.9257 49.1064 50.7224 49.3039 48.6254 47.4198C46.7266 45.7139 43.4436 43.704 39.7053 43.173C36.2273 42.679 32.0177 43.3942 27.5577 47.6507C25.5185 49.597 22.3107 49.4941 20.3932 47.4224C18.4761 45.3509 18.5738 42.0945 20.6127 40.1486ZM40.971 33.9301C34.8012 33.0537 27.7937 34.6127 21.2611 40.8473C19.603 42.4298 19.5227 45.0798 21.0831 46.7658C22.6432 48.4514 25.2515 48.5342 26.9093 46.952C31.5828 42.4917 36.0809 41.6894 39.8366 42.2228C43.8034 42.7863 47.2524 44.9044 49.2528 46.7017C50.9587 48.2344 53.5633 48.0732 55.0706 46.3426C56.5784 44.6116 56.418 41.9651 54.7117 40.432C51.8259 37.8393 46.9295 34.7765 40.971 33.9301Z" fill="#DFFF57"/>
<path fill-rule="evenodd" clip-rule="evenodd" d="M32.6115 53.0339C30.3456 52.5594 28.8839 50.2757 29.3467 47.933C29.8213 45.5311 29.8938 41.8298 28.5652 38.4357C27.318 35.2492 24.7456 32.0526 19.2768 30.3529C17.0632 29.6649 15.8113 27.2515 16.4806 24.9624C17.15 22.6733 19.4871 21.3754 21.7007 22.0635C29.6515 24.5346 34.154 29.6202 36.3295 35.1781C38.4237 40.5283 38.2668 46.0335 37.5521 49.6512C37.0893 51.9938 34.8773 53.5083 32.6115 53.0339Z" fill="#2E323E"/>
<path fill-rule="evenodd" clip-rule="evenodd" d="M15.1446 24.1138C15.8989 21.4465 18.5324 19.9336 21.0277 20.7356C29.284 23.3892 33.9872 28.8668 36.2594 34.8696C38.44 40.6305 38.2751 46.5466 37.5321 50.4358C37.0106 53.1656 34.518 54.9307 31.9641 54.3777C29.4096 53.8246 27.7621 51.1621 28.2837 48.4317C28.756 45.9595 28.8257 42.1459 27.5082 38.6653C26.2825 35.427 23.7552 32.1516 18.2969 30.3973C15.8012 29.5951 14.3903 26.7815 15.1446 24.1138ZM20.7741 21.6368C18.7448 20.9846 16.6014 22.215 15.9875 24.386C15.3737 26.5565 16.5216 28.844 18.5505 29.4961C24.2701 31.3344 27.0008 34.8155 28.3244 38.3123C29.7224 42.0057 29.6439 46.0154 29.1464 48.62C28.722 50.8412 30.0621 53.0057 32.1389 53.4554C34.2162 53.9052 36.245 52.4692 36.6694 50.2475C37.3872 46.4901 37.543 40.7703 35.4431 35.2226C33.2687 29.478 28.7689 24.2064 20.7741 21.6368Z" fill="#DFFF57"/>
</svg>
