<svg width="49" height="35" viewBox="0 0 49 35" fill="none" xmlns="http://www.w3.org/2000/svg">
<path fill-rule="evenodd" clip-rule="evenodd" d="M48.1712 4.12572C48.9751 6.52184 47.6821 9.11345 45.2832 9.91424C42.8237 10.7353 39.3935 12.6241 37.0107 15.6769C34.7736 18.543 33.2515 22.669 34.6838 28.7455C35.2636 31.2051 33.7371 33.6667 31.2745 34.2436C28.8118 34.8205 26.3454 33.2942 25.7656 30.8346C23.6833 22.0002 25.8807 15.0479 29.7827 10.0489C33.5389 5.23666 38.6675 2.47374 42.372 1.23712C44.7709 0.436331 47.3673 1.7296 48.1712 4.12572Z" fill="url(#paint0_linear_59_3209)" stroke="url(#paint1_linear_59_3209)" stroke-width="0.5" stroke-linecap="round"/>
<path fill-rule="evenodd" clip-rule="evenodd" d="M42.2219 27.7387C40.5487 29.6329 37.6578 29.809 35.7649 28.1319C33.8241 26.4124 30.4732 24.3862 26.638 23.849C23.0373 23.3446 18.7031 24.0895 14.1569 28.3681C12.3166 30.1 9.4216 30.0089 7.69065 28.1646C5.9597 26.3203 6.04829 23.4212 7.88853 21.6893C14.4981 15.4688 21.6177 13.8956 27.898 14.7753C33.9436 15.6222 38.9007 18.6822 41.8239 21.2721C43.7168 22.9492 43.895 25.8444 42.2219 27.7387Z" fill="url(#paint2_linear_59_3209)" fill-opacity="0.88" stroke="url(#paint3_linear_59_3209)" stroke-width="0.5" stroke-linecap="round"/>
<path fill-rule="evenodd" clip-rule="evenodd" d="M18.8316 34.1167C16.3546 33.6149 14.7567 31.1993 15.2626 28.7214C15.7813 26.1809 15.8606 22.2659 14.4082 18.6758C13.0447 15.3054 10.2325 11.9243 4.25399 10.1265C1.834 9.39873 0.4654 6.84601 1.19714 4.42481C1.92888 2.00361 4.48387 0.63079 6.90386 1.35853C15.5958 3.97235 20.518 9.35152 22.8963 15.2302C25.1857 20.8893 25.0141 26.7123 24.2328 30.5388C23.7269 33.0167 21.3087 34.6186 18.8316 34.1167Z" fill="url(#paint4_linear_59_3209)" stroke="url(#paint5_linear_59_3209)" stroke-width="0.5" stroke-linecap="round"/>
<defs>
<linearGradient id="paint0_linear_59_3209" x1="29.4487" y1="33.6807" x2="46.6945" y2="2.52168" gradientUnits="userSpaceOnUse">
<stop stop-color="#E6FF4E"/>
<stop offset="1" stop-color="#9DFF3C" stop-opacity="0.5"/>
</linearGradient>
<linearGradient id="paint1_linear_59_3209" x1="31.3683" y1="34.8538" x2="46.6929" y2="2.09701" gradientUnits="userSpaceOnUse">
<stop stop-color="#E6FF4E"/>
<stop offset="1" stop-color="#3FFF3C" stop-opacity="0"/>
</linearGradient>
<linearGradient id="paint2_linear_59_3209" x1="43.4104" y1="27.4968" x2="7.41576" y2="25.1612" gradientUnits="userSpaceOnUse">
<stop stop-color="#5E44FF"/>
<stop offset="1" stop-color="#5034FE" stop-opacity="0.67"/>
</linearGradient>
<linearGradient id="paint3_linear_59_3209" x1="43.4104" y1="27.4968" x2="7.41576" y2="25.1612" gradientUnits="userSpaceOnUse">
<stop stop-color="#5E44FF"/>
<stop offset="1" stop-color="#5034FE" stop-opacity="0"/>
</linearGradient>
<linearGradient id="paint4_linear_59_3209" x1="19.6353" y1="35.0251" x2="3.66068" y2="2.68504" gradientUnits="userSpaceOnUse">
<stop stop-color="#E6FF4E"/>
<stop offset="1" stop-color="#9DFF3C" stop-opacity="0.5"/>
</linearGradient>
<linearGradient id="paint5_linear_59_3209" x1="19.6353" y1="35.0251" x2="3.66068" y2="2.68504" gradientUnits="userSpaceOnUse">
<stop stop-color="#E6FF4E"/>
<stop offset="1" stop-color="#3FFF3C" stop-opacity="0"/>
</linearGradient>
</defs>
</svg>
