<svg width="58" height="58" viewBox="0 0 58 58" fill="none" xmlns="http://www.w3.org/2000/svg">
<path fill-rule="evenodd" clip-rule="evenodd" d="M27.2824 0.0310098C26.6448 0.0695015 25.7127 0.164529 24.9446 0.269384C23.0162 0.532645 20.9753 1.03946 19.0803 1.72563C18.6231 1.89119 17.7456 2.23455 17.7067 2.26314C17.6922 2.27381 17.5792 2.32419 17.4557 2.37507C16.9993 2.5632 15.9086 3.08708 15.4005 3.36223C14.8017 3.68657 14.6895 3.75063 14.0085 4.15692C10.3002 6.3695 6.97201 9.60637 4.58883 13.3181C3.95911 14.2989 3.54298 15.0265 3.07804 15.9599C1.77074 18.5845 0.899024 21.2285 0.404125 24.0704C0.283563 24.7628 0.124593 26.0844 0.0562292 26.9629C-0.00759133 27.7831 -0.0196105 29.6721 0.033221 30.5818C0.16493 32.8495 0.532426 35.0151 1.14068 37.1079C1.62163 38.7629 2.19451 40.2348 2.96574 41.7972C3.9156 43.7216 4.90426 45.2937 6.21375 46.9621C7.49679 48.5967 9.24189 50.3517 10.8941 51.6689C11.1117 51.8423 11.1696 51.8871 11.6047 52.219C12.4342 52.8516 13.573 53.6029 14.5764 54.1796C16.2404 55.1358 18.0732 55.9497 19.9652 56.5727C21.496 57.0767 23.2011 57.4781 24.7469 57.6985C26.2189 57.9084 27.1991 57.9828 28.6816 57.9974C30.2443 58.0127 31.1352 57.9633 32.6316 57.7781C34.837 57.5053 36.9438 56.9936 39.0771 56.2128C40.5612 55.6696 42.3055 54.8377 43.7526 53.9829C45.5576 52.9167 47.2209 51.6754 48.7178 50.2776C49.8599 49.211 51.0843 47.8751 51.926 46.7771C52.4207 46.1318 52.6806 45.7726 53.1225 45.1241C53.3889 44.7329 53.884 43.9353 54.1789 43.422C55.135 41.7578 55.9489 39.9248 56.5718 38.0326C57.0858 36.4709 57.4918 34.7328 57.7129 33.1462C57.9093 31.7371 57.9818 30.7665 57.9971 29.3409C58.0147 27.6968 57.955 26.6928 57.7418 25.0479C57.458 22.8588 56.7879 20.3205 55.9352 18.2054C55.5461 17.2401 54.9336 15.9435 54.4501 15.0617C53.6341 13.5735 52.5533 11.9657 51.5189 10.7011C49.5544 8.29966 47.1138 6.12219 44.5979 4.52654C41.3148 2.44424 37.7487 1.06503 33.926 0.399178C33.2476 0.281035 31.9331 0.122074 31.0473 0.0511143C30.3274 -0.00655736 28.102 -0.0184457 27.2824 0.0310098ZM30.5183 0.585059C31.6731 0.647459 32.3188 0.715514 33.5429 0.903825C34.5695 1.06175 36.18 1.42992 37.1846 1.73638C39.6394 2.48518 41.7399 3.43451 44.0168 4.82415C44.9974 5.42261 46.5519 6.55591 47.3788 7.2752C48.5946 8.33268 49.3642 9.08456 50.2516 10.0818C51.1262 11.0646 51.7429 11.8575 52.6145 13.1199C52.9049 13.5405 53.4132 14.3638 53.8134 15.0617C54.059 15.49 54.7828 16.9177 54.9117 17.228C54.9599 17.3443 55.0382 17.5226 55.0855 17.6243C55.1329 17.726 55.2396 17.9757 55.3227 18.1791C56.3131 20.6049 56.9405 23.0351 57.2628 25.6951C57.5207 27.823 57.5056 30.5181 57.2242 32.6078C56.9452 34.6797 56.5537 36.3674 55.9291 38.1911C55.2159 40.2733 54.3894 42.0184 53.1702 44.0164C52.8513 44.5391 52.2606 45.4014 51.7858 46.0374C50.1773 48.1922 48.1471 50.2229 46.0376 51.787C45.587 52.121 45.1682 52.4218 44.981 52.5458C44.9011 52.5987 44.8119 52.6583 44.7829 52.6784C44.361 52.9697 43.5549 53.4618 42.7885 53.8959C42.4005 54.1157 40.8805 54.8773 40.6536 54.9657C40.5764 54.9957 40.4397 55.0545 40.3498 55.0963C40.1222 55.2023 39.5123 55.4516 39.1035 55.6059C36.9079 56.4343 34.6954 56.9736 32.3014 57.2638C30.3349 57.5021 27.671 57.5073 25.7899 57.2764C24.3131 57.0951 23.2073 56.891 21.9221 56.5624C20.4872 56.1955 18.7421 55.5978 17.6539 55.1005C17.5667 55.0606 17.3765 54.9763 17.2312 54.9132C16.842 54.744 15.4369 54.0302 15.0255 53.7926C14.1247 53.2726 13.0384 52.5796 12.4678 52.1609C10.9635 51.0572 10.0488 50.2802 8.88306 49.1155C8.23865 48.4717 7.44742 47.6056 7.06114 47.1211C7.01755 47.0665 6.86851 46.8805 6.72991 46.7079C6.35446 46.2402 5.70868 45.3682 5.47268 45.0101C5.40196 44.9029 5.26423 44.6948 5.16662 44.5478C4.78724 43.9766 4.33413 43.2129 3.8951 42.4049C3.71164 42.0672 3.12307 40.8696 3.02222 40.6288C2.98434 40.5384 2.92493 40.4017 2.89019 40.325C2.85546 40.2484 2.78374 40.0787 2.73083 39.9479C2.67794 39.8172 2.62371 39.6864 2.61034 39.6573C2.56826 39.5658 2.50405 39.4016 2.40898 39.1422C2.35842 39.0041 2.30445 38.8615 2.28908 38.8251C2.27373 38.7888 2.17433 38.5035 2.06821 38.1911C1.41178 36.2587 0.989472 34.3911 0.736039 32.2998C0.478591 30.1753 0.493701 27.4735 0.774659 25.3872C1.05348 23.3166 1.4615 21.5614 2.08163 19.7646C2.36071 18.956 2.68555 18.117 2.90335 17.6422C2.94548 17.5503 3.01775 17.3844 3.06396 17.2734C3.19329 16.9627 3.97604 15.4205 4.19994 15.0353C4.40205 14.6876 4.64782 14.2707 4.79049 14.0336C4.9058 13.8421 5.69663 12.6566 5.83185 12.4727C6.95064 10.9505 7.73186 10.0304 8.88311 8.87905C10.2164 7.5456 11.3555 6.6056 13.1236 5.37962C13.5781 5.06448 14.2351 4.65911 15.0651 4.18186C15.4941 3.93519 16.8452 3.24942 17.2312 3.08248C17.3765 3.01963 17.5667 2.93546 17.6539 2.89541C17.741 2.85536 17.9788 2.75463 18.1822 2.67154C20.6025 1.68291 22.9998 1.06313 25.6851 0.731761C27.0639 0.561626 28.9982 0.502897 30.5183 0.585059ZM18.6973 26.7356V36.0779L21.0021 36.0711L23.3068 36.0644L23.3135 31.7648C23.3179 28.96 23.3293 27.4652 23.3463 27.4652C23.3606 27.4652 23.4361 27.5217 23.514 27.5907C23.5919 27.6597 23.9213 27.942 24.2459 28.2181C24.5706 28.4942 24.897 28.7736 24.9714 28.8389C25.0457 28.9043 25.2057 29.041 25.327 29.1428C25.4483 29.2445 25.6852 29.4462 25.8536 29.591C27.3693 30.8945 27.6 31.0872 27.6261 31.0712C27.6428 31.0608 27.6522 30.5509 27.6522 29.6569V28.2588L27.5532 28.208C27.4283 28.1439 27.349 28.0594 27.2969 27.9346C27.1968 27.6952 27.304 27.4314 27.5532 27.3036L27.6522 27.2528V26.1569C27.6522 25.5542 27.6607 25.0611 27.6709 25.0611C27.6812 25.0611 27.7347 25.1051 27.7898 25.1589L27.89 25.2568V22.9032C27.89 20.1486 27.8575 20.3723 28.2025 20.7509C28.4294 20.9999 29.5083 22.1945 29.9471 22.6825C30.0978 22.8501 30.2821 23.0537 30.3565 23.1349C30.431 23.2162 30.5751 23.3762 30.6768 23.4907C30.9178 23.7617 31.6509 24.5718 31.7658 24.6938L31.8552 24.7888L31.7854 24.9184C31.7246 25.0313 31.7177 25.0682 31.7313 25.2064L31.7468 25.365L31.542 25.4875C31.4294 25.5549 31.1708 25.7079 30.9674 25.8275C30.764 25.947 30.5679 26.0649 30.5316 26.0893C30.4952 26.1137 30.2664 26.2506 30.023 26.3935C29.7797 26.5364 29.5806 26.6616 29.5806 26.6716C29.5806 26.6917 29.6801 26.7859 29.7331 26.816C29.7621 26.8324 30.1701 26.6096 30.5051 26.3944C30.556 26.3617 30.8934 26.1599 31.255 25.9459L31.9124 25.5567L32.0021 25.5995C32.1238 25.6575 32.3453 25.6545 32.4603 25.5934C32.5109 25.5664 32.5876 25.4946 32.6307 25.4338C32.6951 25.343 32.7092 25.2965 32.7099 25.1724C32.7115 24.8692 32.5152 24.6648 32.2224 24.6648H32.0745L31.6134 24.1563C31.3598 23.8767 30.9981 23.4755 30.8097 23.2647C30.6212 23.054 30.3478 22.7504 30.2021 22.59C29.7468 22.0888 29.4657 21.7778 29.356 21.654C29.2484 21.5324 29.1016 21.3709 28.8397 21.086C28.7592 20.9983 28.5987 20.8202 28.4831 20.6902C28.3675 20.5602 28.2532 20.4334 28.2291 20.4085C28.1902 20.3684 28.1893 20.3517 28.2213 20.2619C28.3183 19.99 28.1995 19.7168 27.9367 19.6069C27.801 19.5502 27.6837 19.5558 27.5459 19.6255C27.3279 19.7358 27.2108 19.9963 27.2821 20.2125C27.3228 20.3356 27.4431 20.4742 27.5464 20.5171L27.6258 20.55V22.7806C27.6258 24.9249 27.624 25.0099 27.5782 24.9767C27.552 24.9578 27.0795 24.5555 26.5282 24.0828C25.6635 23.3416 23.9266 21.8552 23.5182 21.507C22.9781 21.0467 22.1698 20.3559 21.7615 20.0057C21.7252 19.9745 21.5006 19.7826 21.2623 19.5792C21.0241 19.3758 20.5189 18.9439 20.1396 18.6194C19.7604 18.2948 19.3499 17.9441 19.2273 17.84C19.1047 17.7359 18.9562 17.6088 18.8971 17.5575C18.8381 17.5062 18.7689 17.4483 18.7435 17.4288C18.6995 17.395 18.6973 17.8422 18.6973 26.7356ZM34.6911 22.4259C34.6842 22.444 34.6757 24.3887 34.6721 26.7474L34.6656 31.036L33.9788 30.4491C33.4114 29.9642 32.9853 29.5997 32.3543 29.0598C31.8646 28.6407 31.6275 28.4382 31.4957 28.3267C31.4086 28.2528 31.3241 28.1804 31.3081 28.1656C31.292 28.1509 31.0134 27.913 30.6889 27.6369C30.3644 27.3608 30.0283 27.0726 29.9421 26.9963C29.8558 26.92 29.7709 26.8576 29.7533 26.8576C29.7253 26.8576 28.9962 27.2829 28.4542 27.6155C28.2736 27.7263 28.2647 27.7365 28.2473 27.8526C28.2326 27.9504 28.2042 27.9988 28.1004 28.1026C28.0297 28.1734 27.9533 28.2313 27.9309 28.2313C27.8944 28.2313 27.89 28.3982 27.89 29.7636C27.89 30.6063 27.8828 31.2959 27.874 31.2959C27.8652 31.2959 27.8129 31.2602 27.7579 31.2166C27.7029 31.173 27.6506 31.1374 27.6418 31.1374C27.633 31.1374 27.6258 32.1352 27.6258 33.3548V35.5723L27.5205 35.6315C27.3194 35.7445 27.2202 35.9787 27.2798 36.2001C27.3109 36.3154 27.4608 36.4891 27.5628 36.5279L27.6258 36.5518V37.0528V37.5537L27.5205 37.6129C27.4626 37.6454 27.3824 37.7195 27.3422 37.7774C27.2818 37.8647 27.2692 37.9108 27.2692 38.0458C27.2692 38.1832 27.2814 38.2265 27.3468 38.3208C27.4465 38.4646 27.5829 38.5345 27.7639 38.5345C27.9509 38.5345 28.0674 38.4692 28.1793 38.3014L28.2705 38.1647H29.5727C30.6251 38.1647 30.875 38.1713 30.875 38.1991C30.875 38.2723 31.0363 38.4507 31.1399 38.4921C31.5199 38.6442 31.8952 38.3725 31.842 37.9839C31.7804 37.5345 31.2142 37.398 30.9421 37.767C30.9052 37.817 30.875 37.8734 30.875 37.8924C30.875 37.9203 30.6265 37.9269 29.5727 37.9269H28.2705L28.1793 37.7898C28.1252 37.7085 28.0478 37.6322 27.989 37.6023L27.89 37.5519V37.055V36.5582L28.0081 36.4889C28.0806 36.4464 28.1531 36.374 28.1956 36.3015L28.2648 36.1833H28.9994H29.7341L29.8033 36.3015C29.846 36.3743 29.9183 36.4465 29.9916 36.4894C30.0941 36.5495 30.1337 36.5577 30.2767 36.5486C30.4609 36.5369 30.5464 36.487 30.6627 36.3236C30.7614 36.1849 30.7586 35.9431 30.6567 35.796C30.4329 35.4732 29.9652 35.5003 29.7886 35.8465L29.738 35.9455H29.0009H28.2638L28.2023 35.8343C28.1481 35.7359 28.0959 35.6886 27.9322 35.5889C27.8925 35.5647 27.8894 35.3858 27.896 33.453L27.9032 31.3435L28.6957 32.0209C29.1315 32.3934 29.6248 32.8153 29.7919 32.9584C29.959 33.1015 30.3632 33.4467 30.69 33.7256C31.0169 34.0045 31.4805 34.401 31.7203 34.6067C31.96 34.8124 32.1799 35.0005 32.209 35.0246C32.238 35.0487 32.4468 35.2271 32.673 35.4211C32.8992 35.6151 33.1543 35.8333 33.2399 35.9059C33.3255 35.9786 33.4506 36.0855 33.5179 36.1437C33.5851 36.2018 33.7401 36.3346 33.8623 36.4389C33.9845 36.5431 34.3995 36.8977 34.7845 37.2268C35.1695 37.556 35.5845 37.9105 35.7067 38.0148C36.0794 38.3328 36.1674 38.408 36.4116 38.6174C36.541 38.7284 36.8727 39.0115 37.1487 39.2465C37.4247 39.4816 37.7457 39.7556 37.8619 39.8555C38.5223 40.4228 39.25 41.042 39.274 41.0567C39.2932 41.0686 39.3016 38.2292 39.3016 31.7333V22.3928H37.0026C35.1876 22.3928 34.701 22.3998 34.6911 22.4259ZM27.89 26.2724C27.89 27.2641 27.8907 27.2769 27.9445 27.294C27.9746 27.3035 28.04 27.3472 28.0899 27.3911C28.1484 27.4425 28.1964 27.4648 28.2248 27.4539C28.2491 27.4445 28.5601 27.2631 28.9159 27.0506L29.5629 26.6643L29.4991 26.6142C29.464 26.5866 29.0987 26.2764 28.6874 25.9249C28.276 25.5733 27.9284 25.2817 27.9147 25.2769C27.8996 25.2715 27.89 25.659 27.89 26.2724Z" fill="#2E323E"/>
</svg>
