<svg width="22" height="20" viewBox="0 0 22 20" fill="none" xmlns="http://www.w3.org/2000/svg">
<path d="M10.0297 1.26897C10.3218 0.305851 11.7072 0.305849 11.9992 1.26897L13.6169 6.60351C13.7495 7.04076 14.163 7.33652 14.6264 7.32556L20.2796 7.1918C21.3002 7.16766 21.7283 8.46483 20.8882 9.03592L16.2348 12.1991C15.8534 12.4584 15.6955 12.9369 15.8492 13.3674L17.7254 18.6193C18.0641 19.5675 16.9433 20.3692 16.132 19.759L11.6383 16.3794C11.27 16.1024 10.7589 16.1024 10.3906 16.3794L5.89695 19.759C5.08564 20.3692 3.96484 19.5675 4.30357 18.6193L6.1797 13.3674C6.33348 12.9369 6.17554 12.4584 5.79412 12.1991L1.14076 9.03592C0.300622 8.46483 0.728728 7.16766 1.74938 7.1918L7.40254 7.32556C7.86591 7.33652 8.2794 7.04076 8.41199 6.60351L10.0297 1.26897Z" fill="#5E44FF"/>
</svg>
