<svg width="33" height="34" viewBox="0 0 33 34" fill="none" xmlns="http://www.w3.org/2000/svg">
<g clip-path="url(#clip0_59_3235)">
<path d="M16.5 0.128906C7.38723 0.128906 0 7.51614 0 16.6289C0 25.7417 7.38723 33.1289 16.5 33.1289C25.6128 33.1289 33 25.7417 33 16.6289C33 7.51614 25.6128 0.128906 16.5 0.128906Z" fill="#57D0FF"/>
<path d="M24.5287 9.61958L21.5815 24.4785C21.5815 24.4785 21.1694 25.5089 20.0359 25.0143L13.2351 19.8003L10.7621 18.6051L6.59924 17.2037C6.59924 17.2037 5.96038 16.977 5.8985 16.4824C5.83663 15.9878 6.61986 15.7199 6.61986 15.7199L23.1683 9.22822C23.1683 9.22822 24.5285 8.63062 24.5285 9.61984" fill="white"/>
<path d="M12.7126 24.3107C12.7126 24.3107 12.514 24.2921 12.2665 23.5089C12.0194 22.7258 10.7622 18.6041 10.7622 18.6041L20.7573 12.2568C20.7573 12.2568 21.3345 11.9064 21.3138 12.2568C21.3138 12.2568 21.4168 12.3187 21.1076 12.6072C20.7986 12.8958 13.2559 19.6759 13.2559 19.6759" fill="#D2E5F1"/>
<path d="M15.8426 21.8015L13.1527 24.2541C13.1527 24.2541 12.9424 24.4136 12.7124 24.3136L13.2275 19.7581" fill="#B5CFE4"/>
</g>
<defs>
<clipPath id="clip0_59_3235">
<rect width="33" height="33" fill="white" transform="translate(0 0.128906)"/>
</clipPath>
</defs>
</svg>
