<svg width="16" height="16" viewBox="0 0 16 16" fill="none" xmlns="http://www.w3.org/2000/svg">
<g id="Group 7009">
<path id="i" d="M8.30626 5.59672C8.12869 5.59672 7.97649 5.4976 7.84966 5.3192C7.74819 5.18045 7.69746 4.92276 7.69746 4.58578C7.69746 4.28845 7.79893 3.95147 7.97649 3.57485C8.17943 3.19822 8.4331 3 8.76286 3C8.99116 3 9.2702 3.11893 9.54923 3.33698C9.70143 3.45591 9.77753 3.65413 9.77753 3.93165C9.77753 4.18934 9.59997 4.54614 9.2702 4.9624C8.94043 5.37867 8.61066 5.59672 8.30626 5.59672ZM7.74819 12.9904C6.91109 13.0499 6.17545 12.8318 5.59202 12.3561C5.00858 11.8605 4.85638 11.1073 5.13541 10.0765C5.31298 9.34312 5.66812 8.49077 6.17545 7.49965C6.47985 6.88516 6.75889 6.78605 7.26622 6.94463C8.00186 7.08339 8.25553 7.30143 8.02723 7.63841C7.11402 9.12508 6.65742 10.3342 6.65742 11.2262C6.65742 11.5632 6.78425 11.7813 7.01256 11.8804C7.49452 12.1777 8.55993 11.8605 9.1941 11.5632C9.52387 11.4245 9.879 11.2461 10.2088 11.0677L10.8176 10.7703C10.9444 10.7109 11.0205 10.7109 10.9951 10.7901C10.9698 11.0082 10.6146 11.3848 9.9551 11.92C9.14336 12.594 8.40773 12.9508 7.74819 12.9904Z" fill="#9496C0"/>
<circle id="Ellipse 905" cx="8" cy="8" r="7.5" stroke="#9496C0"/>
</g>
</svg>
