<svg width="33" height="34" viewBox="0 0 33 34" fill="none" xmlns="http://www.w3.org/2000/svg">
<path d="M7.42606 30.5508L8.04475 30.8602C10.623 32.407 13.5105 33.1289 16.398 33.1289C25.473 33.1289 32.898 25.7039 32.898 16.6289C32.898 12.2977 31.1448 8.06956 28.0512 4.97576C24.9574 1.88196 20.8323 0.128906 16.398 0.128906C7.32301 0.128906 -0.102128 7.5539 0.00106272 16.7321C0.00106272 19.8257 0.929187 22.8165 2.47601 25.3945L2.88848 26.0133L1.23861 32.0977L7.42606 30.5508Z" fill="#00E676"/>
<path d="M24.5147 20.5803L23.537 20.1359C23.537 20.1359 22.1151 19.5137 21.2263 19.0693C21.1373 19.0693 21.0485 18.9804 20.9596 18.9804C20.6929 18.9804 20.5152 19.0693 20.3374 19.1583C20.3374 19.1583 20.2486 19.2471 19.0043 20.6691C18.9154 20.8469 18.7376 20.9358 18.5599 20.9358H18.471C18.3821 20.9358 18.2044 20.8469 18.1155 20.7581L17.6711 20.5803C16.6934 20.1359 15.8047 19.6026 15.0936 18.8916C14.9159 18.7138 14.6492 18.5361 14.4715 18.3584C13.8493 17.7362 13.2271 17.0251 12.7829 16.2252L12.6939 16.0475C12.6051 15.9585 12.6051 15.8697 12.5162 15.692C12.5162 15.5142 12.5162 15.3365 12.6051 15.2476C12.6051 15.2476 12.9606 14.8032 13.2271 14.5366C13.405 14.3587 13.4938 14.0922 13.6716 13.9144C13.8493 13.6478 13.9382 13.2923 13.8493 13.0256C13.7605 12.5812 12.6939 10.1815 12.4274 9.64827C12.2495 9.3816 12.0719 9.29279 11.8052 9.20386H10.8276C10.6497 9.20386 10.4721 9.29279 10.2942 9.29279L10.2053 9.3816C10.0275 9.47053 9.8498 9.64827 9.67206 9.73708C9.49432 9.91495 9.40538 10.0926 9.22764 10.2704C8.60548 11.0703 8.25 12.048 8.25 13.0256C8.25 13.7366 8.42774 14.4477 8.69442 15.0698L8.78335 15.3365C9.58325 17.0251 10.6497 18.5361 12.0719 19.8692L12.4274 20.2247C12.6939 20.4914 12.9606 20.6691 13.1383 20.9357C15.0048 22.5356 17.1378 23.691 19.5375 24.3131C19.8042 24.4019 20.1597 24.4019 20.4264 24.4909H21.3151C21.7595 24.4909 22.2927 24.3131 22.6483 24.1354C22.9149 23.9577 23.0926 23.9577 23.2704 23.7799L23.4482 23.602C23.626 23.4243 23.8037 23.3355 23.9814 23.1578C24.1592 22.98 24.3369 22.8023 24.4259 22.6244C24.6036 22.2689 24.6924 21.8245 24.7813 21.3802V20.7581C24.7813 20.7581 24.6924 20.6691 24.5147 20.5803Z" fill="white"/>
</svg>
